<svg width="64" height="64" viewBox="0 0 64 64" fill="none" xmlns="http://www.w3.org/2000/svg">
<path d="M31.9999 39.16C28.9359 39.16 26.4399 41.7867 26.4399 45.016V61.2187C28.1813 61.2907 30.0346 61.3334 31.9999 61.3334C33.9653 61.3334 35.8186 61.2907 37.5599 61.2187V45.016C37.5599 41.7867 35.0639 39.16 31.9999 39.16Z" fill="white"/>
<path d="M56.2266 18.0213C56.04 17.624 55.7573 17.2773 55.4053 17.016C54.912 16.648 54.408 16.2746 53.9013 15.9013V9.34663C53.9013 7.13596 52.1093 5.34663 49.9013 5.34663C47.6933 5.34663 45.9013 7.13596 45.9013 9.34663V10.1866C39.8373 6.02663 34.2453 2.66663 32 2.66663C28.536 2.66663 17.36 10.472 8.59199 17.0186C8.23732 17.2853 7.95199 17.6346 7.76532 18.04C7.63999 18.312 4.68799 24.872 4.68799 38.248C4.68799 44.0213 5.22665 52.568 5.83999 56.536C5.99732 57.5493 6.71999 58.3813 7.70132 58.68C7.96265 58.76 12.6133 60.1413 21.1067 60.88V45.0186C21.1067 38.848 25.992 33.8293 32 33.8293C38.008 33.8293 42.8933 38.848 42.8933 45.0186V60.88C51.3866 60.144 56.0347 58.76 56.2933 58.6826C57.272 58.384 57.9973 57.552 58.152 56.5386C58.768 52.544 59.312 43.9973 59.312 38.2506C59.312 24.76 56.352 18.296 56.2266 18.0266V18.0213Z" fill="white"/>
</svg>
