<svg width="64" height="64" viewBox="0 0 64 64" fill="none" xmlns="http://www.w3.org/2000/svg">
<g clip-path="url(#clip0_126_94)">
<path d="M47.9395 32C39.1022 32 31.9395 39.1627 31.9395 48C31.9395 56.8373 39.1022 64 47.9395 64C56.7768 64 63.9395 56.8373 63.9395 48C63.9395 39.1627 56.7768 32 47.9395 32ZM56.7422 53.16C56.3342 56.04 53.7875 58.1333 50.8782 58.1333H50.1315V59.2213C50.1315 60.3867 49.1902 61.3333 48.0248 61.3333H47.9715C46.8088 61.3333 45.8675 60.384 45.8675 59.2213V58.1333H45.3342C43.4382 58.1333 41.7395 57.2667 40.6142 55.912C39.4995 54.568 40.4462 52.536 42.1928 52.536C42.7982 52.536 43.5528 52.8213 43.9635 53.2667C44.3048 53.6373 44.7955 53.8693 45.3368 53.8693H50.9448C51.6862 53.8693 52.3635 53.3707 52.5075 52.6427C52.6755 51.7947 52.1182 51.0027 51.3048 50.8373L43.8622 49.3467C40.8968 48.752 38.8275 45.9307 39.2622 42.8427C39.6675 39.9627 42.2168 37.8667 45.1262 37.8667H45.8728V36.8C45.8728 35.6213 46.8275 34.6667 48.0062 34.6667C49.1848 34.6667 50.1395 35.6213 50.1395 36.8V37.8667H50.6728C52.5688 37.8667 54.2675 38.7307 55.3928 40.088C56.5075 41.432 55.5608 43.464 53.8142 43.464C53.2088 43.464 52.4542 43.1787 52.0435 42.7333C51.7022 42.3627 51.2115 42.1307 50.6702 42.1307H45.0648C44.3235 42.1307 43.6462 42.6267 43.4995 43.352C43.3288 44.2 43.8888 44.9973 44.6968 45.16L52.1422 46.6507C55.1075 47.2427 57.1795 50.0693 56.7422 53.1547V53.16ZM64.0008 3.24267V16.344C64.0008 18.408 61.5048 19.4427 60.0435 17.984L55.8595 13.8L48.5742 21.0853C44.5848 25.0747 38.0888 25.0773 34.0942 21.0853L26.9155 13.904C26.0435 13.032 24.6248 13.032 23.7502 13.904L6.83018 30.8293C6.04884 31.6107 5.02484 32 4.00084 32C2.97684 32 1.95284 31.6107 1.17151 30.8293C-0.391155 29.2693 -0.391155 26.7333 1.17151 25.1733L18.0968 8.248C22.0862 4.256 28.5848 4.256 32.5742 8.248L39.7528 15.4267C40.6275 16.2987 42.0435 16.2987 42.9208 15.4267L50.2062 8.14133L46.0222 3.95733C44.5608 2.496 45.5955 0 47.6622 0H60.7662C62.5555 0 64.0088 1.45067 64.0088 3.24267H64.0008ZM10.6675 41.3333V60C10.6675 62.208 8.87818 64 6.66751 64C4.45684 64 2.66751 62.208 2.66751 60V41.3333C2.66751 39.1253 4.45684 37.3333 6.66751 37.3333C8.87818 37.3333 10.6675 39.1253 10.6675 41.3333ZM24.0008 30.6667V60C24.0008 62.208 22.2115 64 20.0008 64C17.7902 64 16.0008 62.208 16.0008 60V30.6667C16.0008 28.456 17.7902 26.6667 20.0008 26.6667C22.2115 26.6667 24.0008 28.456 24.0008 30.6667Z" fill="white"/>
</g>
<defs>
<clipPath id="clip0_126_94">
<rect width="64" height="64" fill="white"/>
</clipPath>
</defs>
</svg>
