<svg width="64" height="64" viewBox="0 0 64 64" fill="none" xmlns="http://www.w3.org/2000/svg">
<g clip-path="url(#clip0_126_88)">
<path d="M2.67417 12.6686H9.96945C11.4093 17.9663 16.8711 21.0937 22.1689 19.6539C25.5714 18.7291 28.2294 16.0711 29.1542 12.6686H61.335C62.8076 12.6686 64.0013 11.4748 64.0013 10.0022C64.0013 8.52964 62.8076 7.33588 61.335 7.33588H29.1542C27.7143 2.03804 22.2525 -1.08939 16.9548 0.350463C13.5522 1.27524 10.8942 3.93323 9.96945 7.33576H2.67417C1.20157 7.33576 0.0078125 8.52951 0.0078125 10.0021C0.0078125 11.4747 1.20157 12.6686 2.67417 12.6686Z" fill="white"/>
<path d="M61.3306 29.3335H54.0353C52.5983 24.0365 47.1395 20.9074 41.8425 22.3442C38.4372 23.268 35.777 25.9281 34.8532 29.3335H2.66978C1.19717 29.3335 0.00341797 30.5273 0.00341797 31.9999C0.00341797 33.4725 1.19717 34.6662 2.66978 34.6662H34.8532C36.2902 39.9632 41.749 43.0924 47.046 41.6555C50.4513 40.7317 53.1115 38.0716 54.0353 34.6662H61.3306C62.8032 34.6662 63.9969 33.4725 63.9969 31.9999C63.9969 30.5273 62.8032 29.3335 61.3306 29.3335Z" fill="white"/>
<path d="M61.3306 51.3314H29.1498C27.7099 46.0337 22.2481 42.9062 16.9504 44.3461C13.5478 45.2709 10.8898 47.9288 9.96505 51.3314H2.66978C1.19717 51.3314 0.00341797 52.5251 0.00341797 53.9977C0.00341797 55.4703 1.19717 56.6641 2.66978 56.6641H9.96505C11.4049 61.9618 16.8667 65.0893 22.1645 63.6494C25.567 62.7246 28.225 60.0666 29.1498 56.6641H61.3306C62.8032 56.6641 63.9969 55.4703 63.9969 53.9977C63.9969 52.5251 62.8032 51.3314 61.3306 51.3314Z" fill="white"/>
</g>
<defs>
<clipPath id="clip0_126_88">
<rect width="64" height="64" fill="white"/>
</clipPath>
</defs>
</svg>
