<svg width="64" height="64" viewBox="0 0 64 64" fill="none" xmlns="http://www.w3.org/2000/svg">
<g clip-path="url(#clip0_126_97)">
<path d="M50.6665 45.3333C47.8573 45.3323 45.098 44.591 42.6665 43.184C40.235 44.591 37.4757 45.3323 34.6665 45.3333H29.3332C26.5201 45.3297 23.7587 44.5768 21.3332 43.152C18.9077 44.577 16.1463 45.33 13.3332 45.3333H10.6665C7.85483 45.3324 5.09393 44.5842 2.6665 43.1653V56C2.6665 58.1217 3.50936 60.1565 5.00965 61.6568C6.50994 63.1571 8.54477 64 10.6665 64H53.3332C55.4549 64 57.4897 63.1571 58.99 61.6568C60.4903 60.1565 61.3332 58.1217 61.3332 56V43.168C58.905 44.5848 56.1444 45.332 53.3332 45.3333H50.6665Z" fill="white"/>
<path d="M45.3333 0V16H40V0H24V16H18.6667V0H5.86667L0.064 26.088L0 29.3333C0 32.1623 1.12381 34.8754 3.12419 36.8758C5.12458 38.8762 7.83769 40 10.6667 40H13.3333C14.853 39.9951 16.3539 39.6635 17.7342 39.0276C19.1145 38.3918 20.342 37.4665 21.3333 36.3147C22.3247 37.4665 23.5521 38.3918 24.9324 39.0276C26.3127 39.6635 27.8136 39.9951 29.3333 40H34.6667C36.1808 40.0008 37.6777 39.6784 39.0573 39.0544C40.4369 38.4303 41.6675 37.519 42.6667 36.3814C43.6659 37.519 44.8964 38.4303 46.276 39.0544C47.6556 39.6784 49.1525 40.0008 50.6667 40H53.3333C56.1623 40 58.8754 38.8762 60.8758 36.8758C62.8762 34.8754 64 32.1623 64 29.3333V26.6667L58.1333 0H45.3333Z" fill="white"/>
</g>
<defs>
<clipPath id="clip0_126_97">
<rect width="64" height="64" fill="white"/>
</clipPath>
</defs>
</svg>
